<svg width="20" height="20" viewBox="0 0 20 20" fill="none" xmlns="http://www.w3.org/2000/svg">
<path fill-rule="evenodd" clip-rule="evenodd" d="M5.21934 8.23871C5.35997 8.09826 5.55059 8.01937 5.74934 8.01937C5.94809 8.01937 6.13871 8.09826 6.27934 8.23871L9.99934 11.9587L13.7193 8.23871C13.788 8.16502 13.8708 8.10592 13.9628 8.06493C14.0548 8.02394 14.1541 8.00189 14.2548 8.00012C14.3555 7.99834 14.4555 8.01686 14.5489 8.05459C14.6423 8.09231 14.7272 8.14845 14.7984 8.21967C14.8696 8.29089 14.9257 8.37572 14.9635 8.46911C15.0012 8.5625 15.0197 8.66253 15.0179 8.76323C15.0162 8.86393 14.9941 8.96325 14.9531 9.05525C14.9121 9.14725 14.853 9.23005 14.7793 9.29871L10.5293 13.5487C10.3887 13.6892 10.1981 13.768 9.99934 13.768C9.80059 13.768 9.60997 13.6892 9.46934 13.5487L5.21934 9.29871C5.07889 9.15808 5 8.96746 5 8.76871C5 8.56996 5.07889 8.37933 5.21934 8.23871Z" fill="#090A12"/>
</svg>
