<svg width="460" height="460" viewBox="0 0 460 460" fill="none" xmlns="http://www.w3.org/2000/svg">
<g opacity="0.16">
<path fill-rule="evenodd" clip-rule="evenodd" d="M230 200C213.431 200 200 213.431 200 230C200 246.569 213.431 260 230 260C246.569 260 260 246.569 260 230C260 213.431 246.569 200 230 200ZM220 230C220 224.477 224.477 220 230 220C235.523 220 240 224.477 240 230C240 235.523 235.523 240 230 240C224.477 240 220 235.523 220 230Z" fill="white"/>
<path fill-rule="evenodd" clip-rule="evenodd" d="M230 160C191.34 160 160 191.34 160 230C160 268.66 191.34 300 230 300C268.66 300 300 268.66 300 230C300 191.34 268.66 160 230 160ZM180 230C180 202.386 202.386 180 230 180C257.614 180 280 202.386 280 230C280 257.614 257.614 280 230 280C202.386 280 180 257.614 180 230Z" fill="white"/>
<path fill-rule="evenodd" clip-rule="evenodd" d="M120 230C120 169.249 169.249 120 230 120C290.751 120 340 169.249 340 230C340 290.751 290.751 340 230 340C169.249 340 120 290.751 120 230ZM230 140C180.294 140 140 180.294 140 230C140 279.706 180.294 320 230 320C279.706 320 320 279.706 320 230C320 180.294 279.706 140 230 140Z" fill="white"/>
<path fill-rule="evenodd" clip-rule="evenodd" d="M230 80C147.157 80 80 147.157 80 230C80 312.843 147.157 380 230 380C312.843 380 380 312.843 380 230C380 147.157 312.843 80 230 80ZM100 230C100 158.203 158.203 100 230 100C301.797 100 360 158.203 360 230C360 301.797 301.797 360 230 360C158.203 360 100 301.797 100 230Z" fill="white"/>
<path fill-rule="evenodd" clip-rule="evenodd" d="M40 230C40 125.066 125.066 40 230 40C334.934 40 420 125.066 420 230C420 334.934 334.934 420 230 420C125.066 420 40 334.934 40 230ZM230 60C136.112 60 60 136.112 60 230C60 323.888 136.112 400 230 400C323.888 400 400 323.888 400 230C400 136.112 323.888 60 230 60Z" fill="white"/>
<path fill-rule="evenodd" clip-rule="evenodd" d="M230 0C102.975 0 0 102.975 0 230C0 357.025 102.975 460 230 460C357.025 460 460 357.025 460 230C460 102.975 357.025 0 230 0ZM20 230C20 114.02 114.02 20 230 20C345.98 20 440 114.02 440 230C440 345.98 345.98 440 230 440C114.02 440 20 345.98 20 230Z" fill="white"/>
</g>
</svg>
