<svg width="60" height="60" viewBox="0 0 60 60" fill="none" xmlns="http://www.w3.org/2000/svg">
<rect width="60" height="60" rx="30" fill="#F2F3F5"/>
<path fill-rule="evenodd" clip-rule="evenodd" d="M30 20.25C24.615 20.25 20.25 24.615 20.25 30C20.25 35.385 24.615 39.75 30 39.75C35.385 39.75 39.75 35.385 39.75 30C39.75 24.615 35.385 20.25 30 20.25ZM30.75 24C30.75 23.8011 30.671 23.6103 30.5303 23.4697C30.3897 23.329 30.1989 23.25 30 23.25C29.8011 23.25 29.6103 23.329 29.4697 23.4697C29.329 23.6103 29.25 23.8011 29.25 24V30C29.25 30.414 29.586 30.75 30 30.75H34.5C34.6989 30.75 34.8897 30.671 35.0303 30.5303C35.171 30.3897 35.25 30.1989 35.25 30C35.25 29.8011 35.171 29.6103 35.0303 29.4697C34.8897 29.329 34.6989 29.25 34.5 29.25H30.75V24Z" fill="black"/>
</svg>
