<svg width="60" height="60" viewBox="0 0 60 60" fill="none" xmlns="http://www.w3.org/2000/svg">
<rect width="60" height="60" rx="30" fill="#F2F3F5"/>
<path fill-rule="evenodd" clip-rule="evenodd" d="M19.5 25.125C19.5 24.089 20.34 23.25 21.375 23.25H27.375C28.411 23.25 29.25 24.09 29.25 25.125V28.875C29.25 29.911 28.41 30.75 27.375 30.75H21.375C20.8777 30.75 20.4008 30.5525 20.0492 30.2008C19.6975 29.8492 19.5 29.3723 19.5 28.875V25.125ZM31.5 26.625C31.5 25.589 32.34 24.75 33.375 24.75H38.625C39.66 24.75 40.5 25.59 40.5 26.625V34.875C40.5 35.91 39.66 36.75 38.625 36.75H33.375C32.8777 36.75 32.4008 36.5525 32.0492 36.2008C31.6975 35.8492 31.5 35.3723 31.5 34.875V26.625ZM21 34.125C21 33.089 21.84 32.25 22.875 32.25H28.125C29.161 32.25 30 33.09 30 34.125V36.375C30 37.41 29.16 38.25 28.125 38.25H22.875C22.3777 38.25 21.9008 38.0525 21.5492 37.7008C21.1975 37.3492 21 36.8723 21 36.375V34.125Z" fill="black"/>
</svg>
