<svg width="60" height="60" viewBox="0 0 60 60" fill="none" xmlns="http://www.w3.org/2000/svg">
<rect width="60" height="60" rx="30" fill="#F2F3F5"/>
<path fill-rule="evenodd" clip-rule="evenodd" d="M26.25 24.75C26.25 23.7554 26.6451 22.8016 27.3483 22.0983C28.0516 21.3951 29.0054 21 30 21C30.9946 21 31.9484 21.3951 32.6517 22.0983C33.3549 22.8016 33.75 23.7554 33.75 24.75C33.75 25.7446 33.3549 26.6984 32.6517 27.4017C31.9484 28.1049 30.9946 28.5 30 28.5C29.0054 28.5 28.0516 28.1049 27.3483 27.4017C26.6451 26.6984 26.25 25.7446 26.25 24.75ZM33.75 27.75C33.75 26.9544 34.0661 26.1913 34.6287 25.6287C35.1913 25.0661 35.9544 24.75 36.75 24.75C37.5456 24.75 38.3087 25.0661 38.8713 25.6287C39.4339 26.1913 39.75 26.9544 39.75 27.75C39.75 28.5456 39.4339 29.3087 38.8713 29.8713C38.3087 30.4339 37.5456 30.75 36.75 30.75C35.9544 30.75 35.1913 30.4339 34.6287 29.8713C34.0661 29.3087 33.75 28.5456 33.75 27.75ZM20.25 27.75C20.25 26.9544 20.5661 26.1913 21.1287 25.6287C21.6913 25.0661 22.4544 24.75 23.25 24.75C24.0456 24.75 24.8087 25.0661 25.3713 25.6287C25.9339 26.1913 26.25 26.9544 26.25 27.75C26.25 28.5456 25.9339 29.3087 25.3713 29.8713C24.8087 30.4339 24.0456 30.75 23.25 30.75C22.4544 30.75 21.6913 30.4339 21.1287 29.8713C20.5661 29.3087 20.25 28.5456 20.25 27.75ZM24.31 33.117C24.92 32.161 25.7611 31.3743 26.7556 30.8294C27.7502 30.2846 28.866 29.9994 30 30C30.9498 29.9991 31.8891 30.1989 32.7564 30.5862C33.6237 30.9734 34.3994 31.5395 35.0327 32.2474C35.6661 32.9552 36.1428 33.7888 36.4317 34.6936C36.7205 35.5985 36.815 36.5541 36.709 37.498C36.696 37.6153 36.6556 37.7278 36.591 37.8265C36.5263 37.9252 36.4393 38.0073 36.337 38.066C34.4086 39.1725 32.2233 39.7532 30 39.75C27.695 39.75 25.53 39.138 23.663 38.066C23.5607 38.0073 23.4737 37.9252 23.409 37.8265C23.3444 37.7278 23.304 37.6153 23.291 37.498C23.1231 35.9646 23.4825 34.4198 24.31 33.118V33.117Z" fill="black"/>
<path d="M23.082 32.2539C22.0957 33.7763 21.6362 35.5802 21.774 37.3889C21.1735 37.2979 20.5829 37.1505 20.01 36.9489L19.895 36.9089C19.7924 36.8725 19.7025 36.8071 19.6363 36.7207C19.5701 36.6342 19.5304 36.5305 19.522 36.4219L19.512 36.3009C19.4716 35.7989 19.5327 35.2938 19.6918 34.816C19.8508 34.3381 20.1045 33.8971 20.4377 33.5194C20.7709 33.1417 21.1767 32.835 21.631 32.6176C22.0853 32.4001 22.5788 32.2765 23.082 32.2539ZM38.226 37.3889C38.3637 35.5802 37.9042 33.7763 36.918 32.2539C37.4211 32.2765 37.9146 32.4001 38.3689 32.6176C38.8232 32.835 39.229 33.1417 39.5622 33.5194C39.8954 33.8971 40.1491 34.3381 40.3082 34.816C40.4672 35.2938 40.5284 35.7989 40.488 36.3009L40.478 36.4219C40.4693 36.5303 40.4295 36.6338 40.3633 36.7201C40.2972 36.8063 40.2074 36.8716 40.105 36.9079L39.99 36.9479C39.423 37.1479 38.834 37.2969 38.226 37.3889Z" fill="black"/>
</svg>
