<svg width="20" height="20" viewBox="0 0 20 20" fill="none" xmlns="http://www.w3.org/2000/svg">
<path fill-rule="evenodd" clip-rule="evenodd" d="M12.2613 5.09434C12.4017 5.23497 12.4806 5.42559 12.4806 5.62434C12.4806 5.82309 12.4017 6.01371 12.2613 6.15434L8.54129 9.87434L12.2613 13.5943C12.335 13.663 12.3941 13.7458 12.4351 13.8378C12.4761 13.9298 12.4981 14.0291 12.4999 14.1298C12.5017 14.2305 12.4831 14.3305 12.4454 14.4239C12.4077 14.5173 12.3515 14.6022 12.2803 14.6734C12.2091 14.7446 12.1243 14.8007 12.0309 14.8385C11.9375 14.8762 11.8375 14.8947 11.7368 14.8929C11.6361 14.8912 11.5368 14.8691 11.4448 14.8281C11.3528 14.7871 11.27 14.728 11.2013 14.6543L6.95129 10.4043C6.81084 10.2637 6.73195 10.0731 6.73195 9.87434C6.73195 9.67559 6.81084 9.48497 6.95129 9.34434L11.2013 5.09434C11.3419 4.95389 11.5325 4.875 11.7313 4.875C11.93 4.875 12.1207 4.95389 12.2613 5.09434Z" fill="#090A12"/>
</svg>
