<svg width="20" height="20" viewBox="0 0 20 20" fill="none" xmlns="http://www.w3.org/2000/svg">
<path fill-rule="evenodd" clip-rule="evenodd" d="M7.73871 5.09434C7.59826 5.23497 7.51937 5.42559 7.51937 5.62434C7.51937 5.82309 7.59826 6.01371 7.73871 6.15434L11.4587 9.87434L7.73871 13.5943C7.66502 13.663 7.60592 13.7458 7.56493 13.8378C7.52393 13.9298 7.50189 14.0291 7.50012 14.1298C7.49834 14.2305 7.51686 14.3305 7.55458 14.4239C7.59231 14.5173 7.64845 14.6022 7.71967 14.6734C7.79089 14.7446 7.87572 14.8007 7.96911 14.8385C8.0625 14.8762 8.16253 14.8947 8.26323 14.8929C8.36393 14.8912 8.46325 14.8691 8.55525 14.8281C8.64725 14.7871 8.73005 14.728 8.79871 14.6543L13.0487 10.4043C13.1892 10.2637 13.268 10.0731 13.268 9.87434C13.268 9.67559 13.1892 9.48497 13.0487 9.34434L8.79871 5.09434C8.65808 4.95389 8.46746 4.875 8.26871 4.875C8.06996 4.875 7.87933 4.95389 7.73871 5.09434Z" fill="#090A12"/>
</svg>
