<svg width="160" height="80" viewBox="0 0 160 80" fill="none" xmlns="http://www.w3.org/2000/svg">
<path fill-rule="evenodd" clip-rule="evenodd" d="M32.8709 49.8313H26.9482C17.7097 49.8313 24.4215 30.1293 32.1994 30.1293H41.557C43.0569 30.1293 45.7021 30.4064 47.0054 26.6804L49.019 20.8926H36.1872C29.2383 20.8926 23.8292 23.3501 19.9206 27.4734C13.1689 34.5297 10.8794 45.5501 12.4979 50.8221C14.0378 55.6984 18.2228 58.9091 24.7767 58.9883L29.87 59.0282H36.1479L37.6877 54.3901C38.8325 51.0997 36.2659 49.8313 32.8709 49.8313ZM104.964 41.6652L106.899 35.3619H86.2504C82.8155 35.3619 81.2757 36.3134 80.6834 38.2955L78.7485 44.5987H99.398C102.833 44.5987 104.373 43.6473 104.964 41.6652ZM75.6694 52.7649L73.7344 59.0675H94.3834C97.7789 59.0675 99.3581 58.1167 99.9504 56.1345L101.885 49.8313H81.2358C77.8409 49.8313 76.301 50.7828 75.6694 52.7649ZM109.782 27.2351L111.716 20.9325H91.0671C87.6323 20.9325 86.0925 21.8833 85.5001 23.8655L83.5652 30.1687H104.215C107.61 30.1687 109.15 29.2172 109.782 27.2351ZM78.5905 28.5041C77.7223 22.637 74.6033 20.9325 67.0227 20.9325H53.2041L45.1497 44.5987H50.243C53.2827 44.5987 54.8226 44.6381 56.4416 40.2776L59.7972 30.1293H64.9298C69.3128 30.1293 68.3254 35.6396 66.1145 40.9908C64.1403 45.7086 60.7054 49.8707 56.5597 49.8707H47.9922C44.5574 49.8707 42.9782 50.8221 42.3465 52.8042L40.2144 59.1074H46.4917L52.6511 59.0675C58.0995 59.0282 62.5611 58.632 67.7729 53.9142C73.3 48.8799 79.6965 35.9565 78.5905 28.5041ZM148 20.8926H136.037L124.784 32.9038C123.482 34.2914 122.139 35.6789 120.837 37.3042H120.718L126.324 20.8926H116.572L103.425 59.0675H113.177L117.362 47.0563L121.705 43.3697L125.14 54.2317C126.206 57.6013 127.312 59.0675 129.68 59.0675H137.142L129.483 37.7403L148 20.8926Z" fill="#A6A6A8"/>
</svg>
