<svg width="160" height="80" viewBox="0 0 160 80" fill="none" xmlns="http://www.w3.org/2000/svg">
<path d="M27.8658 47.8465C31.3879 47.3999 34.2331 44.5546 34.6825 41.0297C34.8394 39.8266 34.7178 38.6035 34.3271 37.4549C33.9364 36.3062 33.2871 35.2627 32.4292 34.4047C31.5712 33.5468 30.5277 32.8975 29.379 32.5068C28.2304 32.1161 27.0073 31.9945 25.8042 32.1514C22.2793 32.6008 19.434 35.446 18.9874 38.9681C18.8305 40.1712 18.9521 41.3943 19.3428 42.5429C19.7335 43.6916 20.3829 44.7352 21.2408 45.5931C22.0987 46.451 23.1423 47.1004 24.291 47.4911C25.4396 47.8818 26.6627 48.0034 27.8658 47.8465ZM28.3461 25.2419C31.737 25.5989 34.9027 27.1092 37.3137 29.5202C39.7247 31.9312 41.235 35.0969 41.592 38.4878C42.5216 47.8689 34.7022 55.6884 25.3183 54.7587C21.9278 54.4011 18.7628 52.8906 16.3524 50.4796C13.9419 48.0687 12.4321 44.9033 12.0752 41.5128C11.1455 32.1317 18.965 24.3123 28.3461 25.2419ZM49.5518 25.829H71.266C72.0918 25.829 72.558 26.7727 72.0609 27.4299L57.0371 47.251H68.8084C70.9542 47.251 72.6423 49.2031 72.1985 51.4276C71.8727 53.0594 70.3419 54.1717 68.6792 54.1717H45.0972C44.2799 54.1717 43.8165 53.2364 44.308 52.5876L59.343 32.7496H49.681C48.0183 32.7496 46.4875 31.6346 46.1617 30.0055C45.7151 27.781 47.406 25.829 49.5518 25.829ZM143.787 25.9076C146.028 25.4357 148 27.1322 148 29.2893V53.1718C148 54.006 147.037 54.4694 146.385 53.9526L127.654 39.0917V50.717C127.654 52.874 125.682 54.5705 123.441 54.0986C121.834 53.7616 120.733 52.2646 120.733 50.6243V26.8261C120.733 25.9919 121.696 25.5284 122.348 26.0452L141.082 40.9061V29.382C141.082 27.7417 142.186 26.2475 143.79 25.9076H143.787ZM95.0137 25.1661C106.482 25.1661 115.778 31.8059 115.778 39.9961C115.778 48.1863 106.482 54.8261 95.0137 54.8261C83.5457 54.8261 74.2488 48.1863 74.2488 39.9961C74.2488 31.8059 83.5457 25.1661 95.0137 25.1661ZM95.0137 32.0868C87.0903 32.0868 81.1695 36.2633 81.1695 39.9961C81.1695 43.7289 87.0903 47.9054 95.0137 47.9054C102.937 47.9054 108.858 43.7317 108.858 39.9961C108.858 36.2605 102.937 32.0868 95.0137 32.0868Z" fill="#A6A6A8"/>
</svg>
