<svg width="160" height="80" viewBox="0 0 160 80" fill="none" xmlns="http://www.w3.org/2000/svg">
<path d="M82.1924 29.6333V49.5132H84.7188V59.6938H79.3682V54.1206H66.4004V59.6938H61.0488V49.5132H62.9072C64.9509 45.4258 65.3223 37.6959 65.3223 31.7134V29.6333H82.1924ZM96.6094 29.187C102.369 29.187 106.122 32.3828 106.122 40.8921V43.939H92.1504C92.4105 48.0264 94.0091 50.0327 98.2451 50.0327C101.032 50.0326 104.079 48.9552 105.862 47.729V52.4478C104.153 53.5997 101.44 54.603 97.7617 54.603C90.4044 54.603 86.2051 50.4785 86.2051 41.9692C86.2052 34.575 89.5497 29.1872 96.6094 29.187ZM141.72 29.187C144.618 29.187 146.737 29.6705 147.963 30.3394V35.2437C146.811 34.5005 144.618 33.7202 142.389 33.7202C138.599 33.7204 136.518 36.4331 136.518 41.7466C136.518 46.8 138.227 49.9954 142.352 49.9956C144.804 49.9956 146.551 49.3641 148 48.3608V53.0796C146.588 54.12 144.693 54.603 142.018 54.603C134.289 54.603 130.535 50.0698 130.498 41.9321C130.498 34.5007 134.326 29.1872 141.72 29.187ZM34.4443 54.1206H28.5732V24.8765H25.9346C21.1042 24.8765 18.5773 27.2918 18.5771 30.896C18.5771 34.9834 20.3234 36.8792 23.9277 39.2944L26.9004 41.3003L18.3545 54.1206H12L19.6924 42.6753C15.2706 39.5169 12.7803 36.433 12.7803 31.231C12.7803 24.7282 17.3139 20.3062 25.8975 20.3062H34.4443V54.1206ZM45.1084 29.6333V39.2944H52.8369V29.6333H58.6338V54.1206H52.8369V43.9019H45.1084V54.1206H39.3115V29.6333H45.1084ZM115.783 29.6333V40.9292L123.958 29.6333H129.792L121.617 40.9292L130.907 54.1206H124.33L115.783 42.0806V54.1206H109.987V29.6333H115.783ZM70.2646 34.1665V34.9097C70.2646 39.1457 69.8185 45.8346 68.2207 49.5132H76.3955V34.1665H70.2646ZM96.4609 33.7202C93.7114 33.7203 92.2991 35.7641 92.1504 39.6655H100.214V39.1831C100.214 36.099 99.3221 33.7202 96.4609 33.7202Z" fill="#A6A6A8"/>
</svg>
