<svg width="160" height="80" viewBox="0 0 160 80" fill="none" xmlns="http://www.w3.org/2000/svg">
<path d="M42.2734 14.7275C42.5092 14.7429 42.7393 14.8123 42.9443 14.9326L43.2549 15.0869L43.2715 15.1064L44.248 15.626L44.1865 15.5547L45.4443 16.2441L45.4297 16.2275L47.0352 17.1084L47.0488 17.124L48.2783 17.7812L48.2832 17.7871L49.5723 18.4541L49.6201 18.5098L50.8154 19.1289L50.8291 19.1455L52.0586 19.7998L52.0645 19.8066L53.3525 20.4727L53.3701 20.4932L54.5957 21.1484L54.6094 21.1641L55.8389 21.8213L55.8438 21.8271L57.1328 22.4941L57.1445 22.5078L58.376 23.167L58.3916 23.1855L59.6211 23.8369L59.6348 23.8535L60.916 24.5127L60.9326 24.5332L62.1592 25.1875L62.167 25.1963L63.1426 25.7041L62.7754 25.9072L62.7803 25.9121L62.3096 26.168L62.3135 26.1719L61.8457 26.4258L61.8486 26.4287L61.3779 26.6846L61.3809 26.6875L60.9473 26.9238L60.9678 26.9473L60.4844 27.1875L60.5 27.2061L60.0312 27.4609L60.0352 27.4658L59.5635 27.7217L59.5674 27.7256L59.0986 27.9805L59.1025 27.9844L58.5303 28.3447L58.5098 28.3213L58.0674 28.6064L58.0576 28.5957L57.6006 28.8633L57.5977 28.8604L57.1865 29.1221L57.166 29.0977L56.8145 29.3213L56.8223 29.3301L56.3545 29.5859L56.3574 29.5898L55.8867 29.8467L55.8896 29.8496L55.458 30.085L55.4766 30.1064L54.9951 30.3467L55.0117 30.3652L54.54 30.6211L54.5439 30.625L54.0752 30.8799L54.0791 30.8838L53.6094 31.1396L53.6123 31.1436L53.1436 31.3984L53.1475 31.4033L52.5771 31.7139L52.5752 31.7119L52.2441 31.8926L52.2666 31.9189L51.7949 32.1748L51.7988 32.1787L51.3301 32.4336L51.334 32.4375L50.7637 32.7998L50.7432 32.7754L50.2969 33.0596L50.2773 33.0371L49.832 33.3213L49.8086 33.2939L49.3643 33.5781L49.3604 33.5742L48.9512 33.835L48.9326 33.8125L48.7432 33.9404C48.6516 33.981 48.5777 34.0539 48.5371 34.1455L48.5322 34.1396C48.452 34.278 48.3829 34.4355 48.3828 34.5615V34.7676L48.3809 34.7646V35.3857L48.3828 35.3887V35.959C48.4342 36.0642 48.4348 36.1671 48.54 36.3213C48.6425 36.4263 48.694 36.5311 48.7988 36.5801L49.8125 37.1992L49.7266 37.0996L49.9775 37.3008L49.9883 37.3076H50.042L50.0684 37.3389C50.1588 37.3691 50.2539 37.3848 50.3496 37.3848C50.4748 37.3847 50.5987 37.359 50.7129 37.3076L50.7197 37.3154C50.7337 37.31 50.7481 37.3076 50.7617 37.3076L51.082 37.1074L51.0752 37.0996L51.543 36.8428L51.54 36.8398L52.0098 36.583L52.0068 36.5801L52.4385 36.3438L52.4209 36.3232L52.8896 36.0664L52.8877 36.0645L53.3555 35.8086L53.3525 35.8047L53.8223 35.5479L53.8203 35.5459L54.2881 35.29L54.2852 35.2861L54.7549 35.0293L54.752 35.0264L55.3223 34.667L55.7334 34.4053L55.7559 34.4307L56.2012 34.1455L56.2227 34.1709L56.666 33.8887L56.6875 33.9141L57.1328 33.6299L57.1533 33.6533L57.5049 33.4297L57.498 33.4219L57.9307 33.1846L57.9111 33.1621L58.3789 32.9062L58.376 32.9033L58.8447 32.6465L58.8438 32.6455L59.3115 32.3896L59.3086 32.3867L59.7783 32.1299L59.7754 32.127L60.2432 31.8711L60.2402 31.8682L60.6758 31.6309L60.6562 31.6084L61.1377 31.3672L61.1211 31.3486L61.5898 31.0928L61.5889 31.0918L62.0566 30.8359L62.0537 30.833L62.5234 30.5762L62.5215 30.5732L62.9893 30.3174L62.9863 30.3145L63.5557 29.9521L63.5752 29.9766L64.0234 29.6924L64.0303 29.7021L64.2314 29.5898L64.2285 30.2109V32.3828L64.2314 32.3867V34.1455L64.2285 34.1416V51.8613C64.2215 51.9798 64.2004 52.0967 64.166 52.21L64.1777 52.2236C64.1298 52.4012 64.0532 52.5692 63.9531 52.7227L63.9697 52.7422C63.8237 52.8882 63.6737 53.0782 63.5254 53.1875L63.4561 53.2588L63.0869 53.4424L62.707 53.6494L62.7266 53.6719L62.2578 53.9277L62.2617 53.9316L61.793 54.1865L61.7969 54.1904L61.3271 54.4473L61.3291 54.4502L60.7598 54.8125L60.7383 54.7881L60.2939 55.0713L60.29 55.0674L59.8789 55.3311L59.8564 55.3057L59.5078 55.5264L59.5166 55.5361L59.0479 55.791L59.0518 55.7959L58.5801 56.0518L58.584 56.0557L58.1504 56.291L58.1709 56.3145L57.6992 56.5703L57.7031 56.5742L57.2344 56.8271L57.2383 56.8311L56.7695 57.0879L56.7705 57.0898L56.3018 57.3457L56.3057 57.3496L55.7334 57.7119L55.7314 57.709L55.3223 57.9707L55.3008 57.9463L54.8555 58.2305L54.835 58.2061L54.4854 58.4287L54.4932 58.4385L54.0234 58.6934L54.0254 58.6953L53.5918 58.9307L53.6123 58.9551L53.1436 59.21L53.1475 59.2139L52.6758 59.4697L52.6797 59.4736L52.2109 59.7285L52.2148 59.7334L51.7451 59.9883L51.748 59.9922L51.1777 60.3545L51.1738 60.3506L50.7637 60.6143L50.7412 60.5879L50.2988 60.8711L50.2773 60.8457L49.9238 61.0703L49.9316 61.0791L49.4648 61.333L49.4697 61.3379L49.0342 61.5742L49.0537 61.5977L48.5859 61.8525L48.5889 61.8564L48.1201 62.1123L48.1211 62.1133L47.6533 62.3691L47.6562 62.373L47.1846 62.6299L47.1895 62.6348L46.7568 62.8701L46.7754 62.8916L46.2061 63.2539L46.1855 63.2305L45.7402 63.5137L45.7178 63.4873L45.2754 63.7705L45.2539 63.7461L44.9023 63.9688L44.9111 63.9785L44.4434 64.2344L44.4463 64.2373L44.0107 64.4746L44.0303 64.4971L43.5615 64.752L43.5654 64.7568L43.0947 65.0127L43.0977 65.0156L42.9414 65.1182C42.7873 65.1695 42.6331 65.2235 42.4766 65.2725L42.459 65.252C42.3447 65.2738 42.2302 65.2754 42.1143 65.2754H41.8037L41.7939 65.2637C41.6271 65.2435 41.4537 65.1947 41.3389 65.1182L40.6123 64.7051L40.6055 64.6973L39.2666 63.9268L39.2646 63.9248L38.1865 63.3037L38.2314 63.3564L36.8408 62.5322L36.8828 62.5811L35.2266 61.5977L35.1846 61.5488L33.8271 60.7676L33.8242 60.7646L32.4814 59.9922L32.4756 59.9854L31.1328 59.2139L31.1289 59.21L29.7871 58.4385L29.7793 58.4297L28.7021 57.8096L28.752 57.8682L27.3701 57.0469L27.4062 57.0898L25.6963 56.1064L25.6279 56.0254L24.3506 55.3311L24.2598 55.2246L23.0049 54.502L23.0029 54.5L21.9932 53.918L20.7754 53.2588C20.6165 53.1591 20.4659 53.0054 20.3398 52.8252C20.3363 52.8212 20.3347 52.8155 20.3311 52.8115C20.1341 52.5251 20 52.1729 20 51.8584V29.5898L20.4131 29.7979L20.4795 29.876L21.4131 30.3828L21.3975 30.3652L21.5996 30.4844L21.7617 30.5732L21.7754 30.5889L22.7812 31.1855L22.7451 31.1436L24.1309 31.9658L24.0908 31.9189L25.748 32.8516L25.7822 32.8916L26.8398 33.4863L26.7852 33.4219L28.4414 34.4053L28.4443 34.4092L29.5918 35.0684L31.1328 35.9072L31.2129 36.001L32.1738 36.541L32.1191 36.4775L33.5059 37.3008L33.4648 37.2529L34.8525 38.0762L34.8135 38.0312L36.4668 38.9639L36.5303 39.0381L37.4648 39.5479L37.4531 39.5342L37.707 39.6797L37.8154 39.7393L37.8203 39.7451L39.1641 40.5176L39.1768 40.5322L39.9395 40.9824C40.0421 41.0363 40.1444 41.1902 40.1445 41.293V43.2588L40.1475 43.2627V44.2471L40.1445 44.2432V46.418L40.1475 46.4219V48.2354L40.1445 48.2314V48.8008L40.1475 48.8047V58.0742C40.148 58.2004 40.1816 58.3246 40.2451 58.4336C40.3087 58.5425 40.4003 58.6327 40.5098 58.6953L41.6494 59.3174L41.6562 59.3262L41.75 59.3682C41.8552 59.4195 41.9606 59.4688 42.1172 59.4688H42.166C42.1858 59.4687 42.2127 59.4591 42.2422 59.4502L42.2168 59.4199C42.322 59.4199 42.4256 59.42 42.5283 59.3711L42.8926 59.1631L42.8984 59.1699L43.3574 58.9033L43.3643 58.9111L43.7109 58.7041L43.7197 58.6953C43.7356 58.6904 43.7509 58.6828 43.7666 58.6748C43.7673 58.6677 43.7705 58.6587 43.7705 58.6465L43.7852 58.6641C43.8885 58.6032 43.9846 58.4821 44.042 58.3467L44.0303 58.333C44.0432 58.3191 44.0538 58.3036 44.0645 58.2881C44.0708 58.2689 44.0775 58.2498 44.082 58.2305H44.084L44.0918 58.2402C44.1175 58.1887 44.1343 58.1327 44.1357 58.0742V57.4551L44.1328 57.4521H44.1357V53.6748L44.1328 53.6719V52.6885L44.1357 52.6914V51.2939L44.1328 51.291V48.7002L44.1357 48.7031V48.0811L44.1328 48.0781V45.4893L44.1357 45.4922V39.2744C44.1357 39.2231 44.0822 39.1719 44.082 39.1182L44.1221 39.165C44.0751 38.9452 43.8982 38.7416 43.7197 38.6533L43.3271 38.3896L41.9062 37.6182L41.834 37.5342L40.5605 36.8398L40.4795 36.7451L39.5254 36.21L39.5771 36.2695L38.1895 35.4453L38.2314 35.4941L36.8457 34.6729L36.8828 34.7158L35.2266 33.7842L35.1914 33.7432L33.8809 33.0078L33.8115 32.9268L32.877 32.417L32.8945 32.4375L32.5508 32.2393L32.5322 32.2295L32.5303 32.2275L31.1865 31.4541L31.1826 31.4492L29.8408 30.6787L28.5439 29.9521L28.5088 29.9102L27.2012 29.1738L27.1699 29.1367L26.1094 28.542L26.1641 28.6064L24.5068 27.6201L24.5049 27.6182L23.418 26.9922L21.8105 26.1201L21.7412 26.0352L21.1406 25.7041L21.3662 25.5752L21.3457 25.5498L21.9668 25.2393L21.9932 25.2705L22.332 25.0859L22.3291 25.083L22.7988 24.8252L22.7969 24.8232L23.2637 24.5684L23.2617 24.5664L23.7314 24.3096L23.7285 24.3066L24.1973 24.0508L24.1943 24.0479L24.7637 23.7363L24.791 23.7686L25.1289 23.584L25.126 23.5801L25.5947 23.3242L25.5938 23.3232L26.0615 23.0674L26.0586 23.0635L26.5273 22.8066L26.5254 22.8047L26.9932 22.5488L26.9902 22.5449L27.5605 22.2373L27.585 22.2666L27.9238 22.0811L27.9229 22.0801L28.3926 21.8232L28.3906 21.8213L28.8584 21.5645L28.8555 21.5615L29.3252 21.3047L29.3223 21.3018L29.79 21.0459L29.7871 21.043L30.3574 20.7324L30.3848 20.7646L30.7217 20.5801L30.7197 20.5781L31.1895 20.3213L31.1865 20.3184L31.6543 20.0625L31.6514 20.0596L32.1338 19.8174L32.1191 19.7998L32.5996 19.5586L32.584 19.54L33.2051 19.2295L33.2217 19.249L33.5322 19.0938L33.5166 19.0752L33.998 18.834L33.9834 18.8164L34.4648 18.5752L34.4482 18.5566L34.9316 18.3164L34.916 18.2979L35.3955 18.0566L35.3809 18.04L36.002 17.7295L36.0283 17.7607L36.3682 17.5742L36.3672 17.5732L36.835 17.3164L36.832 17.3135L37.3008 17.0576L37.2988 17.0547L37.7646 16.7988L37.7637 16.7979L38.334 16.4863L38.3545 16.5107L38.7988 16.2275L38.8242 16.2568L39.167 16.0742L39.1641 16.0703L39.6309 15.8145L39.6289 15.8115L40.0967 15.5557L40.0957 15.5547L40.5635 15.2979L40.5605 15.2949L41.1309 14.9844L41.1611 15.0205L41.3389 14.9326C41.3689 14.9013 41.4333 14.87 41.5029 14.8398L41.4932 14.8281C41.5198 14.8215 41.5465 14.8151 41.5732 14.8086C41.5997 14.7972 41.6261 14.7877 41.6494 14.7764V14.7783L41.6592 14.7891C41.8104 14.7542 41.9621 14.7246 42.1143 14.7246H42.2715L42.2734 14.7275ZM109.755 36.9961C115.865 36.9962 120.01 40.4148 120.01 46.2139C120.01 52.5856 116.123 56.1582 109.598 56.1582H109.339V51.8584C112.498 51.807 114.881 50.0995 114.881 46.3682C114.881 43.2117 112.757 41.4502 109.649 41.4502C108.666 41.4502 107.474 41.5525 106.647 41.917V63.1484H101.57V38.5498C103.589 37.7204 106.648 36.9961 109.755 36.9961ZM98.7217 55.2773C96.4951 55.8988 93.5952 56.1582 91.1094 56.1582C84.6353 56.158 80.3877 52.791 80.3877 46.6299C80.3877 40.7771 84.376 36.9962 90.1748 36.9961C91.4715 36.9961 92.8687 37.151 93.6982 37.5645V29.0732H98.7217V55.2773ZM140 55.2773C137.773 55.8988 134.871 56.1582 132.334 56.1582C125.914 56.1582 121.614 52.7911 121.614 46.6299C121.614 40.7771 125.603 36.9963 131.401 36.9961C132.747 36.9961 134.093 37.151 134.925 37.5645V29.0732H140V55.2773ZM90.5908 41.3467C87.5349 41.3468 85.5166 43.212 85.5166 46.4736C85.5168 49.9431 87.6919 51.9131 91.2666 51.9131C91.8856 51.9131 92.8689 51.9129 93.6982 51.7051V41.917C92.9202 41.5525 91.8336 41.3467 90.5908 41.3467ZM131.867 41.3467C128.76 41.3467 126.74 43.2119 126.74 46.4736C126.74 49.9431 128.968 51.9131 132.54 51.9131C133.164 51.9131 134.096 51.9129 134.925 51.7051V41.917C134.147 41.5526 133.112 41.3467 131.867 41.3467Z" fill="#A6A6A8"/>
</svg>
