<svg width="160" height="80" viewBox="0 0 160 80" fill="none" xmlns="http://www.w3.org/2000/svg">
<path d="M140.217 46.4404C140.182 46.7206 140.076 47.4574 139.116 47.553H130.687C129.728 47.4574 129.552 46.7206 129.516 46.4404V33.4283C129.552 33.1475 129.685 32.5508 130.645 32.4552H139.12C140.08 32.5508 140.182 33.1475 140.217 33.4283V46.4404ZM143.136 27.5523H126.598C124.113 27.753 122.014 29.0132 121.734 31.8326V47.9424C122.014 50.7618 124.113 52.2556 126.598 52.4559H143.136C145.621 52.2556 147.719 50.7618 148 47.9424V31.8326C147.719 29.0132 145.621 27.7526 143.136 27.5523ZM76.2059 32.4552H68.8124V27.5523H91.382V32.4552H83.9885V52.4559H76.2059V32.4552ZM66.4777 32.4552V27.5523H46.2428V52.4559L66.7468 52.4506L66.7541 47.5533H54.0453L54.0465 42.2194H66.4777V37.3288H54.0465V32.4552H66.4777ZM111.617 36.3152C111.617 36.8542 111.483 37.3269 110.515 37.3269H101.499V32.4385H110.527C111.625 32.4385 111.617 33.1573 111.617 33.606V36.3152ZM113.772 42.7747C116.2 42.5804 118.621 40.9279 118.621 38.2142V32.0658C118.339 29.2597 116.234 27.7441 113.738 27.5441H93.7164L93.717 52.4559H101.499V42.7747H104.597L109.655 52.4559H118.605L112.581 42.7747H113.772ZM30.1334 52.4559L35.3474 36.8135V52.4559H43.13V27.5523H32.6239L27.5651 40.0046L22.5063 27.5523H12V52.4559H19.7826V36.8135L25.0354 52.4559H30.1334Z" fill="#A6A6A8"/>
</svg>
