<svg width="160" height="80" viewBox="0 0 160 80" fill="none" xmlns="http://www.w3.org/2000/svg">
<path d="M43.7432 24.3018V55.6982H12V24.3018H43.7432ZM104.421 28.3633C104.424 28.382 104.692 30.1967 107.634 33.2881C110.592 36.3964 114.02 39.4416 114.02 42.6865C114.019 45.9308 111.518 51.6375 104.421 51.6377C97.3241 51.6377 94.8321 46.0181 94.832 42.6865C94.8322 39.3552 98.7058 36.051 101.378 33.2881C104.035 30.5408 104.417 28.3878 104.421 28.3633ZM38.5479 27.71C37.166 27.71 36.4297 29.4668 36.4297 29.4668C36.4064 29.5066 33.7545 34.051 33.127 35.1875C32.496 36.3288 33.127 37.9951 33.127 37.9951L37.0605 47.6045H20.7393C19.3591 47.6045 19.4747 46.4907 19.4775 46.4648V29.4668C19.4775 29.4668 19.493 27.71 17.6611 27.71C15.8295 27.7101 15.8291 29.4668 15.8291 29.4668V47.6045C15.8291 51.1875 19.4797 51.1943 19.4932 51.1943L42.4668 51.1953C42.4668 51.1953 38.0821 40.4445 37.001 37.8613C36.3402 36.6146 37.001 35.6982 37.001 35.6982C37.0296 35.6492 39.5868 31.2625 40.1543 30.2324C40.7245 29.1959 39.9294 27.7102 38.5479 27.71ZM148 50.4209H143.435V37.3281H140.011V43.9053C140.017 43.9648 140.895 52.4112 131.978 50.4365V46.3369C131.978 46.3369 135.4 47.1775 135.4 43.9043V33.3184H148V50.4209ZM63.3379 50.3906H58.7734V37.2979H55.3506V43.875C55.3592 43.9575 56.2218 52.3789 47.3164 50.4062V46.3066C47.3164 46.3066 50.74 47.147 50.7402 43.874V33.2881H63.3379V50.3906ZM72.8887 40.4814L75.4561 33.2881H80.5459L73.0684 50.3916H68.1289L70.5166 45.6162L64.4346 33.2881H69.8701L72.8887 40.4814ZM86.1924 40.5107L90.9512 33.2881H96.4014L90.2764 41.5479L96.7627 50.3916H90.9668L86.1924 43.1084V50.3916H81.5977V33.2881H86.1924V40.5107ZM119.706 43.6348L125.983 33.2881H130.607V50.3916H126.179V40.1357L119.872 50.3916H115.276L115.292 33.2881H119.706V43.6348ZM29.7949 27.71C28.1128 27.71 27.9473 29.4678 27.9473 29.4678V41.7197C27.9473 41.7197 28.0157 42.83 26.791 42.8301C25.5661 42.8301 25.5449 41.7197 25.5449 41.7197V29.4678C25.5449 29.4678 25.4693 27.7102 23.7432 27.71C22.016 27.71 21.9258 29.4678 21.9258 29.4678L21.9121 41.7197C21.9121 41.7197 22.0168 46.3289 26.792 46.4648C31.5516 46.224 31.6113 41.7197 31.6113 41.7197V29.4678C31.6113 29.4678 31.4767 27.7102 29.7949 27.71ZM100.208 37.043C100.143 37.006 100.034 37.1061 100.029 37.1104C99.3379 37.7108 97.9333 38.9201 97.6338 40.9619C97.333 43.0029 98.5951 43.9048 98.8945 44.0996C99.1951 44.2955 99.2392 44.1146 99.2393 43.8291C99.2392 43.5422 99.1963 41.6821 99.3154 40.4512C99.4361 39.2209 100.089 37.5841 100.172 37.373C100.254 37.1631 100.276 37.0801 100.208 37.043ZM127.696 29.5352C127.69 29.5602 126.972 32.3427 122.995 32.3428C119.017 32.3427 118.375 29.5577 118.37 29.5352L121.043 28.4844C121.045 28.5172 121.155 29.9101 122.995 29.9102C124.835 29.9101 124.989 28.5179 124.992 28.4844L127.696 29.5352Z" fill="#A6A6A8"/>
</svg>
